<svg xmlns="http://www.w3.org/2000/svg">
  <symbol id="logo" viewBox="0 0 50 50">
    <rect width="50" height="50" rx="12" fill="#3F8CFF"/>
    <mask id="mask0_1_2135" style="mask-type:luminance" maskUnits="userSpaceOnUse" x="0" y="0" width="50" height="50">
    <rect width="50" height="50" rx="12" fill="white"/>
    </mask>
    <g mask="url(#mask0_1_2135)">
    </g>
    <path fill-rule="evenodd" clip-rule="evenodd" d="M17.9999 25C16.3499 25 15 23.6501 15 22.0002C15 20.3499 16.3499 19 17.9999 19C19.6499 19 21 20.3499 21 22.0002C21 23.6501 19.6499 25 17.9999 25Z" fill="white"/>
    <path fill-rule="evenodd" clip-rule="evenodd" d="M43 18.3448C43 13.2052 38.725 9 33.5 9H33.4998C28.275 9 24 13.2052 24 18.3448V32C24 32 42.9983 29.9193 43 18.346C43 18.3456 43 18.3452 43 18.3448Z" fill="white"/>
    <path fill-rule="evenodd" clip-rule="evenodd" d="M14 37.2076C12.9882 37.2076 12.1605 36.4388 12.1605 35.4993C12.1605 34.5596 12.9882 33.791 14 33.791C15.0116 33.791 15.8392 34.5596 15.8392 35.4993C15.8392 36.4388 15.0116 37.2076 14 37.2076ZM7 35.4978C7 35.4982 7 35.4989 7 35.4993C7 39.0746 10.1499 42 14 42C17.8499 42 21 39.0746 21 35.4993V26C21 26 7.00183 27.4474 7 35.4978Z" fill="white"/>
  </symbol>
  <symbol id="layout" viewBox="0 0 24 24">
    <path d="M8 13C9.65685 13 11 14.3431 11 16V18C11 19.6569 9.65685 21 8 21H6C4.34315 21 3 19.6569 3 18V16C3 14.3431 4.34315 13 6 13H8ZM18 13C19.6569 13 21 14.3431 21 16V18C21 19.6569 19.6569 21 18 21H16C14.3431 21 13 19.6569 13 18V16C13 14.3431 14.3431 13 16 13H18ZM8 3C9.65685 3 11 4.34315 11 6V8C11 9.65685 9.65685 11 8 11H6C4.34315 11 3 9.65685 3 8V6C3 4.34315 4.34315 3 6 3H8ZM18 3C19.6569 3 21 4.34315 21 6V8C21 9.65685 19.6569 11 18 11H16C14.3431 11 13 9.65685 13 8V6C13 4.34315 14.3431 3 16 3H18Z" fill="currentColor" />
  </symbol>
  <symbol id="layers" viewBox="0 0 24 24">
    <path d="M19.5063 15.1309C19.9864 14.8581 20.5966 15.0259 20.8696 15.5059C21.1229 15.9517 20.9959 16.5097 20.5922 16.8057L20.4946 16.8691L13.8998 20.6172C13.0701 21.093 12.0575 21.1251 11.1996 20.7129L11.018 20.6182L4.50139 16.8672C4.02274 16.5917 3.85769 15.9796 4.13322 15.501C4.3891 15.0566 4.93514 14.883 5.39494 15.0811L5.49944 15.1338L12.0121 18.8828C12.2523 19.0198 12.5458 19.0371 12.8012 18.9326L12.9086 18.8799L19.5063 15.1309ZM19.603 11.4707C20.0831 11.1978 20.6934 11.3665 20.9662 11.8467C21.2195 12.2925 21.0927 12.8506 20.6889 13.1465L20.5912 13.21L13.9965 16.957C13.1668 17.4328 12.1541 17.4659 11.2963 17.0537L11.1147 16.958L4.59807 13.207C4.11954 12.9315 3.95544 12.3204 4.23088 11.8418C4.48671 11.3974 5.03181 11.2229 5.49162 11.4209L5.59612 11.4736L12.1098 15.2227C12.3499 15.3596 12.6425 15.3768 12.8979 15.2725L13.0053 15.2207L19.603 11.4707ZM10.9574 2.63672C11.5973 2.24607 12.4025 2.24607 13.0424 2.63672L19.1586 6.37012C20.4462 7.15633 20.4327 9.03097 19.1342 9.79883L13.0405 13.4004C12.4142 13.7704 11.6363 13.771 11.0092 13.4023L4.87737 9.79688C3.57494 9.03107 3.55949 7.1535 4.84904 6.36621L10.9574 2.63672Z" fill="currentColor" />
  </symbol>
  <symbol id="calendar" viewBox="0 0 24 24">
    <path d="M16 1C16.5523 1 17 1.44772 17 2V3C19.2091 3 21 4.79086 21 7V17C21 19.2091 19.2091 21 17 21H7C4.79086 21 3 19.2091 3 17V7C3 4.79086 4.79086 3 7 3V2C7 1.44772 7.44772 1 8 1C8.55228 1 9 1.44772 9 2V3H15V2C15 1.44772 15.4477 1 16 1ZM9 5C9 5.55228 8.55228 6 8 6C7.48232 6 7.05621 5.60667 7.00488 5.10254L7 5C5.9457 5 5.08229 5.81581 5.00586 6.85059L5 7V8H19V7C19 5.9457 18.1842 5.08229 17.1494 5.00586L17 5C17 5.55228 16.5523 6 16 6C15.4823 6 15.0562 5.60667 15.0049 5.10254L15 5H9Z" fill="currentColor" />
  </symbol>
  <symbol id="plane" viewBox="0 0 24 24">
    <path fill-rule="evenodd" clip-rule="evenodd" d="M15.5066 8.79191L15.4969 4.00276C15.4974 2.34482 14.1559 1.00046 12.5007 1.00004C10.8455 0.999621 9.50339 2.34331 9.50297 4.00125L9.49337 8.79191L3.09998 12.0137C2.42549 12.3535 2 13.0444 2 13.7997V14.8043C2 15.426 2.56138 15.8971 3.17369 15.7891L9.49245 14.6746V17.2007L8.45276 18.4579C8.15621 18.8164 7.99396 19.2672 7.99396 19.7325V20.7663C7.99396 21.4018 8.57916 21.8762 9.20099 21.7446L12.5007 21.0463L15.7769 21.7431C16.399 21.8754 16.9849 21.401 16.9849 20.765V19.7256C16.9849 19.2645 16.8256 18.8175 16.5339 18.4604L15.5075 17.2039V14.6746L21.8263 15.7891C22.4386 15.8971 23 15.426 23 14.8043V13.7997C23 13.0444 22.5745 12.3535 21.9 12.0137L15.5066 8.79191Z" fill="currentColor" />
  </symbol>
  <symbol id="users" viewBox="0 0 24 24">
    <path d="M8.58301 4C11.0907 4.00008 13.3027 5.63865 14.0273 8.0332C14.7519 10.4278 13.8183 13.0135 11.7295 14.3975C13.4634 15.0355 14.9626 16.1836 16.0273 17.6904C16.1903 17.9213 16.2104 18.224 16.0801 18.4746C15.9497 18.7251 15.6902 18.8827 15.4072 18.8828H1.75781C1.47489 18.8826 1.2153 18.7251 1.08496 18.4746C0.954761 18.224 0.975784 17.9222 1.13867 17.6914C2.20352 16.1843 3.70226 15.0356 5.43652 14.3975C3.34765 13.0135 2.41404 10.4278 3.13867 8.0332C3.86337 5.63859 6.07526 4 8.58301 4ZM14.7666 4.21387C17.4604 3.45918 20.3048 4.77148 21.4727 7.30762C22.6405 9.84379 21.7852 12.8509 19.4561 14.3975C21.1901 15.0355 22.6891 16.1836 23.7539 17.6904C23.9169 17.9213 23.937 18.224 23.8066 18.4746C23.6762 18.7251 23.4168 18.8828 23.1338 18.8828H18.8955C18.6009 18.8828 18.3326 18.7125 18.208 18.4463C17.6254 17.2005 16.805 16.0796 15.793 15.1465C15.7781 15.1327 15.7645 15.1181 15.751 15.1035C15.4863 14.8625 15.2094 14.6343 14.9219 14.4209C14.607 14.1872 14.5233 13.7527 14.7285 13.4189C16.2621 10.921 16.1178 7.7431 14.3643 5.39355C14.2153 5.19385 14.1744 4.93388 14.2549 4.69824C14.3354 4.46276 14.5265 4.28129 14.7666 4.21387Z" fill="currentColor" />
  </symbol>
  <symbol id="chat" viewBox="0 0 24 24">
    <path fill-rule="evenodd" clip-rule="evenodd" d="M22.1131 17.1417C23.2813 15.0135 23.2963 12.4606 22.153 10.3196C21.0098 8.17856 18.8557 6.72546 16.3968 6.43648C15.313 3.96537 12.925 2.27316 10.1786 2.03006C7.43221 1.78695 4.77042 3.03217 3.24746 5.27253C1.72449 7.5129 1.58606 10.387 2.88697 12.7565L2.30716 14.7344C2.17615 15.181 2.30391 15.6617 2.64093 15.9902C2.97795 16.3187 3.47124 16.4433 3.92957 16.3157L5.95948 15.7506C6.7809 16.179 7.67719 16.4543 8.60228 16.5622C9.42916 18.4471 11.03 19.9072 13.0148 20.5867C14.9995 21.2661 17.1857 21.1025 19.0407 20.1357L21.0705 20.7008C21.5288 20.8284 22.0221 20.7038 22.3591 20.3754C22.6961 20.047 22.824 19.5663 22.693 19.1197L22.1131 17.1417ZM20.6612 16.675C20.5556 16.848 20.5279 17.0558 20.5847 17.2494L21.1581 19.205L19.1512 18.6463C18.9526 18.591 18.7394 18.618 18.5619 18.7209C17.1753 19.5217 15.5165 19.7454 13.9588 19.3419C12.4012 18.9383 11.0754 17.9413 10.28 16.5753C12.3569 16.3658 14.2498 15.3212 15.5024 13.6933C16.7549 12.0655 17.2534 10.002 16.8777 8.00059C18.7362 8.42838 20.2748 9.69239 21.0218 11.405C21.7687 13.1175 21.6348 15.0742 20.6612 16.675Z" fill="currentColor" />
  </symbol>
  <symbol id="folder" viewBox="0 0 24 24">
    <path fill-rule="evenodd" clip-rule="evenodd" d="M22.7133 9.96615C22.427 9.56926 21.9681 9.33394 21.4793 9.33333H20.2529L20.2392 8.26013C20.2252 7.16563 19.3339 6.28571 18.2394 6.28571H12.4751C12.258 6.28571 12.0468 6.21507 11.8734 6.08444L9.6407 4.40254C9.2939 4.1413 8.8715 4 8.43731 4H4C2.89543 4 2 4.89543 2 6L2 18C2 19.1046 2.89543 20 4 20H18.5968C19.458 20 20.2224 19.4488 20.4944 18.6318L22.9223 11.339C23.0763 10.8743 22.9986 10.3637 22.7133 9.96615ZM8.25749 5.52381C8.47416 5.52381 8.68496 5.59418 8.85818 5.72432L11.2278 7.50474C11.4915 7.70195 11.8115 7.80883 12.1405 7.80952H17.7318C18.2841 7.80952 18.7318 8.25724 18.7318 8.80952V9.33333H6.35086C5.69595 9.33274 5.11436 9.75267 4.90782 10.3753L3.52108 14.543V6.52381C3.52108 5.97153 3.96879 5.52381 4.52108 5.52381H8.25749Z" fill="currentColor" />
  </symbol>
</svg>
