<svg xmlns="http://www.w3.org/2000/svg">
  <symbol id="logo" viewBox="0 0 50 50">
    <rect width="50" height="50" rx="12" fill="#3F8CFF"/>
    <mask id="mask0_1_2135" style="mask-type:luminance" maskUnits="userSpaceOnUse" x="0" y="0" width="50" height="50">
    <rect width="50" height="50" rx="12" fill="white"/>
    </mask>
    <g mask="url(#mask0_1_2135)">
    </g>
    <path fill-rule="evenodd" clip-rule="evenodd" d="M17.9999 25C16.3499 25 15 23.6501 15 22.0002C15 20.3499 16.3499 19 17.9999 19C19.6499 19 21 20.3499 21 22.0002C21 23.6501 19.6499 25 17.9999 25Z" fill="white"/>
    <path fill-rule="evenodd" clip-rule="evenodd" d="M43 18.3448C43 13.2052 38.725 9 33.5 9H33.4998C28.275 9 24 13.2052 24 18.3448V32C24 32 42.9983 29.9193 43 18.346C43 18.3456 43 18.3452 43 18.3448Z" fill="white"/>
    <path fill-rule="evenodd" clip-rule="evenodd" d="M14 37.2076C12.9882 37.2076 12.1605 36.4388 12.1605 35.4993C12.1605 34.5596 12.9882 33.791 14 33.791C15.0116 33.791 15.8392 34.5596 15.8392 35.4993C15.8392 36.4388 15.0116 37.2076 14 37.2076ZM7 35.4978C7 35.4982 7 35.4989 7 35.4993C7 39.0746 10.1499 42 14 42C17.8499 42 21 39.0746 21 35.4993V26C21 26 7.00183 27.4474 7 35.4978Z" fill="white"/>
  </symbol>
  <symbol id="layout" viewBox="0 0 24 24">
    <path d="M8 13C9.65685 13 11 14.3431 11 16V18C11 19.6569 9.65685 21 8 21H6C4.34315 21 3 19.6569 3 18V16C3 14.3431 4.34315 13 6 13H8ZM18 13C19.6569 13 21 14.3431 21 16V18C21 19.6569 19.6569 21 18 21H16C14.3431 21 13 19.6569 13 18V16C13 14.3431 14.3431 13 16 13H18ZM8 3C9.65685 3 11 4.34315 11 6V8C11 9.65685 9.65685 11 8 11H6C4.34315 11 3 9.65685 3 8V6C3 4.34315 4.34315 3 6 3H8ZM18 3C19.6569 3 21 4.34315 21 6V8C21 9.65685 19.6569 11 18 11H16C14.3431 11 13 9.65685 13 8V6C13 4.34315 14.3431 3 16 3H18Z" fill="currentColor" />
  </symbol>
  <symbol id="layers" viewBox="0 0 24 24">
    <path d="M19.5063 15.1309C19.9864 14.8581 20.5966 15.0259 20.8696 15.5059C21.1229 15.9517 20.9959 16.5097 20.5922 16.8057L20.4946 16.8691L13.8998 20.6172C13.0701 21.093 12.0575 21.1251 11.1996 20.7129L11.018 20.6182L4.50139 16.8672C4.02274 16.5917 3.85769 15.9796 4.13322 15.501C4.3891 15.0566 4.93514 14.883 5.39494 15.0811L5.49944 15.1338L12.0121 18.8828C12.2523 19.0198 12.5458 19.0371 12.8012 18.9326L12.9086 18.8799L19.5063 15.1309ZM19.603 11.4707C20.0831 11.1978 20.6934 11.3665 20.9662 11.8467C21.2195 12.2925 21.0927 12.8506 20.6889 13.1465L20.5912 13.21L13.9965 16.957C13.1668 17.4328 12.1541 17.4659 11.2963 17.0537L11.1147 16.958L4.59807 13.207C4.11954 12.9315 3.95544 12.3204 4.23088 11.8418C4.48671 11.3974 5.03181 11.2229 5.49162 11.4209L5.59612 11.4736L12.1098 15.2227C12.3499 15.3596 12.6425 15.3768 12.8979 15.2725L13.0053 15.2207L19.603 11.4707ZM10.9574 2.63672C11.5973 2.24607 12.4025 2.24607 13.0424 2.63672L19.1586 6.37012C20.4462 7.15633 20.4327 9.03097 19.1342 9.79883L13.0405 13.4004C12.4142 13.7704 11.6363 13.771 11.0092 13.4023L4.87737 9.79688C3.57494 9.03107 3.55949 7.1535 4.84904 6.36621L10.9574 2.63672Z" fill="currentColor" />
  </symbol>
  <symbol id="calendar" viewBox="0 0 24 24">
    <path d="M16 2C16.5523 2 17 2.44772 17 3V4C19.2091 4 21 5.79086 21 8V18C21 20.2091 19.2091 22 17 22H7C4.79086 22 3 20.2091 3 18V8C3 5.79086 4.79086 4 7 4V3C7 2.44772 7.44772 2 8 2C8.55228 2 9 2.44772 9 3V4H15V3C15 2.44772 15.4477 2 16 2ZM5 18C5 19.0543 5.81581 19.9177 6.85059 19.9941L7 20H17C18.0543 20 18.9177 19.1842 18.9941 18.1494L19 18V11H5V18ZM9 6C9 6.55228 8.55228 7 8 7C7.48232 7 7.05621 6.60667 7.00488 6.10254L7 6C5.9457 6 5.08229 6.81581 5.00586 7.85059L5 8V9H19V8C19 6.9457 18.1842 6.08229 17.1494 6.00586L17 6C17 6.55228 16.5523 7 16 7C15.4823 7 15.0562 6.60667 15.0049 6.10254L15 6H9Z" fill="currentColor" />
  </symbol>
  <symbol id="plane" viewBox="0 0 24 24">
    <path fill-rule="evenodd" clip-rule="evenodd" d="M15.5066 8.79191L15.4969 4.00276C15.4974 2.34482 14.1559 1.00046 12.5007 1.00004C10.8455 0.999621 9.50339 2.34331 9.50297 4.00125L9.49337 8.79191L3.09998 12.0137C2.42549 12.3535 2 13.0444 2 13.7997V14.8043C2 15.426 2.56138 15.8971 3.17369 15.7891L9.49245 14.6746V17.2007L8.45276 18.4579C8.15621 18.8164 7.99396 19.2672 7.99396 19.7325V20.7663C7.99396 21.4018 8.57916 21.8762 9.20099 21.7446L12.5007 21.0463L15.7769 21.7431C16.399 21.8754 16.9849 21.401 16.9849 20.765V19.7256C16.9849 19.2645 16.8256 18.8175 16.5339 18.4604L15.5075 17.2039V14.6746L21.8263 15.7891C22.4386 15.8971 23 15.426 23 14.8043V13.7997C23 13.0444 22.5745 12.3535 21.9 12.0137L15.5066 8.79191Z" fill="currentColor" />
  </symbol>
  <symbol id="users" viewBox="0 0 24 24">
    <path d="M8.58301 4C11.0907 4.00008 13.3027 5.63865 14.0273 8.0332C14.7519 10.4278 13.8183 13.0135 11.7295 14.3975C13.4634 15.0355 14.9626 16.1836 16.0273 17.6904C16.1903 17.9213 16.2104 18.224 16.0801 18.4746C15.9497 18.7251 15.6902 18.8827 15.4072 18.8828H1.75781C1.47489 18.8826 1.2153 18.7251 1.08496 18.4746C0.954761 18.224 0.975784 17.9222 1.13867 17.6914C2.20352 16.1843 3.70226 15.0356 5.43652 14.3975C3.34765 13.0135 2.41404 10.4278 3.13867 8.0332C3.86337 5.63859 6.07526 4 8.58301 4ZM14.7666 4.21387C17.4604 3.45918 20.3048 4.77148 21.4727 7.30762C22.6405 9.84379 21.7852 12.8509 19.4561 14.3975C21.1901 15.0355 22.6891 16.1836 23.7539 17.6904C23.9169 17.9213 23.937 18.224 23.8066 18.4746C23.6762 18.7251 23.4168 18.8828 23.1338 18.8828H18.8955C18.6009 18.8828 18.3326 18.7125 18.208 18.4463C17.6254 17.2005 16.805 16.0796 15.793 15.1465C15.7781 15.1327 15.7645 15.1181 15.751 15.1035C15.4863 14.8625 15.2094 14.6343 14.9219 14.4209C14.607 14.1872 14.5233 13.7527 14.7285 13.4189C16.2621 10.921 16.1178 7.7431 14.3643 5.39355C14.2153 5.19385 14.1744 4.93388 14.2549 4.69824C14.3354 4.46276 14.5265 4.28129 14.7666 4.21387Z" fill="currentColor" />
  </symbol>
  <symbol id="chat" viewBox="0 0 24 24">
    <path fill-rule="evenodd" clip-rule="evenodd" d="M22.1131 17.1417C23.2813 15.0135 23.2963 12.4606 22.153 10.3196C21.0098 8.17856 18.8557 6.72546 16.3968 6.43648C15.313 3.96537 12.925 2.27316 10.1786 2.03006C7.43221 1.78695 4.77042 3.03217 3.24746 5.27253C1.72449 7.5129 1.58606 10.387 2.88697 12.7565L2.30716 14.7344C2.17615 15.181 2.30391 15.6617 2.64093 15.9902C2.97795 16.3187 3.47124 16.4433 3.92957 16.3157L5.95948 15.7506C6.7809 16.179 7.67719 16.4543 8.60228 16.5622C9.42916 18.4471 11.03 19.9072 13.0148 20.5867C14.9995 21.2661 17.1857 21.1025 19.0407 20.1357L21.0705 20.7008C21.5288 20.8284 22.0221 20.7038 22.3591 20.3754C22.6961 20.047 22.824 19.5663 22.693 19.1197L22.1131 17.1417ZM20.6612 16.675C20.5556 16.848 20.5279 17.0558 20.5847 17.2494L21.1581 19.205L19.1512 18.6463C18.9526 18.591 18.7394 18.618 18.5619 18.7209C17.1753 19.5217 15.5165 19.7454 13.9588 19.3419C12.4012 18.9383 11.0754 17.9413 10.28 16.5753C12.3569 16.3658 14.2498 15.3212 15.5024 13.6933C16.7549 12.0655 17.2534 10.002 16.8777 8.00059C18.7362 8.42838 20.2748 9.69239 21.0218 11.405C21.7687 13.1175 21.6348 15.0742 20.6612 16.675Z" fill="currentColor" />
  </symbol>
  <symbol id="folder" viewBox="0 0 24 24">
    <path fill-rule="evenodd" clip-rule="evenodd" d="M22.7133 9.96615C22.427 9.56926 21.9681 9.33394 21.4793 9.33333H20.2529L20.2392 8.26013C20.2252 7.16563 19.3339 6.28571 18.2394 6.28571H12.4751C12.258 6.28571 12.0468 6.21507 11.8734 6.08444L9.6407 4.40254C9.2939 4.1413 8.8715 4 8.43731 4H4C2.89543 4 2 4.89543 2 6L2 18C2 19.1046 2.89543 20 4 20H18.5968C19.458 20 20.2224 19.4488 20.4944 18.6318L22.9223 11.339C23.0763 10.8743 22.9986 10.3637 22.7133 9.96615ZM8.25749 5.52381C8.47416 5.52381 8.68496 5.59418 8.85818 5.72432L11.2278 7.50474C11.4915 7.70195 11.8115 7.80883 12.1405 7.80952H17.7318C18.2841 7.80952 18.7318 8.25724 18.7318 8.80952V9.33333H6.35086C5.69595 9.33274 5.11436 9.75267 4.90782 10.3753L3.52108 14.543V6.52381C3.52108 5.97153 3.96879 5.52381 4.52108 5.52381H8.25749Z" fill="currentColor" />
  </symbol>
  <symbol id="plus" viewBox="0 0 24 24">
    <path d="M12 5C12.5128 5 12.9354 5.38645 12.9932 5.88379L13 6V11H18C18.5523 11 19 11.4477 19 12C19 12.5128 18.6135 12.9354 18.1162 12.9932L18 13H13V18C13 18.5523 12.5523 19 12 19C11.4872 19 11.0646 18.6135 11.0068 18.1162L11 18V13H6C5.44772 13 5 12.5523 5 12C5 11.4872 5.38645 11.0646 5.88379 11.0068L6 11H11V6C11 5.44772 11.4477 5 12 5Z" fill="currentColor" />
  </symbol>
  <symbol id="bell" viewBox="0 0 24 24">
    <path d="M13.5566 19.1035C14.3273 19.1035 14.8084 19.9378 14.4219 20.6045C13.921 21.4681 12.9983 22 12 22C11.0017 22 10.079 21.4681 9.57812 20.6045C9.2109 19.9712 9.62686 19.1863 10.3301 19.1094L10.4434 19.1035H13.5566ZM12 2C15.9511 2.00002 19.1688 5.13986 19.2959 9.06055L19.2998 9.30078V13.8018C19.2998 14.6915 19.9833 15.4217 20.8535 15.4961L21.1328 15.5098C22.244 15.629 22.2873 17.2404 21.2617 17.4746L21.1328 17.4951L21 17.502H3L2.86719 17.4951C1.71142 17.3711 1.71142 15.6338 2.86719 15.5098L3.14648 15.4961C3.96832 15.4258 4.62312 14.7704 4.69336 13.9482L4.7002 13.8018V9.30078C4.70038 5.26868 7.96839 2 12 2ZM12 4C9.14611 4 6.81867 6.25657 6.7041 9.08301L6.7002 9.30078V13.8018C6.7002 14.3103 6.59771 14.7952 6.41211 15.2363L6.3125 15.4531L6.28516 15.502H17.7139L17.6875 15.4531C17.5037 15.085 17.3792 14.6813 17.3271 14.2559L17.3047 13.998L17.2998 13.8018V9.30078C17.2996 6.37318 14.9269 4.00002 12 4Z" fill="currentColor" />
  <symbol>
  <symbol id="funnel" viewBox="0 0 24 24">
    <path d="M17.0928 2C17.8275 2.00004 18.5368 2.26971 19.0859 2.75781C20.3241 3.85858 20.4357 5.75486 19.335 6.99316L14.5459 12.3789V18.7637C14.5459 19.0595 14.4915 19.3524 14.3848 19.627L14.2949 19.8291C13.7066 21.0057 12.2753 21.4829 11.0986 20.8945L10.2051 20.4473C9.18873 19.9391 8.5459 18.9 8.5459 17.7637V12.3809L3.75781 6.99316C3.31853 6.49897 3.05592 5.87512 3.00781 5.21973L3 5C3 3.34315 4.34315 2 6 2H17.0928ZM6 4C5.44772 4 5 4.44772 5 5C5 5.24491 5.09022 5.48101 5.25293 5.66406L10.2939 11.3359C10.4565 11.5189 10.5459 11.7552 10.5459 12V17.7637C10.5459 18.1423 10.7601 18.4887 11.0986 18.6582L11.9932 19.1055C12.1818 19.1998 12.4115 19.1233 12.5059 18.9346C12.5323 18.8816 12.5459 18.8229 12.5459 18.7637V12C12.5459 11.7552 12.6362 11.519 12.7988 11.3359L17.8398 5.66406C18.2067 5.25131 18.1695 4.61984 17.7568 4.25293C17.5738 4.09025 17.3376 4.00004 17.0928 4H6Z" fill="currentColor" />
  </symbol>
  <symbol id="message" viewBox="0 0 24 24">
    <path fill-rule="evenodd" clip-rule="evenodd" d="M13.1169 2.00003H12.6169C11.1421 1.99628 9.68472 2.34146 8.36607 3.00752C5.15179 4.61395 3.11832 7.90212 3.11693 11.4997L3.12322 11.8681C3.16381 12.9716 3.39941 14.0594 3.81816 15.0806L3.92393 15.3251L3.2286 17.0032C2.91564 17.7583 2.92435 18.6084 3.25269 19.3569L3.32817 19.5163C4.04433 20.9218 5.74201 21.5409 7.20512 20.8991L8.80293 20.1971L9.03643 20.2989C10.1711 20.7642 11.3884 21.0033 12.6195 21.0001C16.2149 20.9987 19.5031 18.9652 21.1114 15.7472C21.7756 14.4323 22.1208 12.9749 22.117 11.4975L22.117 11.0001C21.8542 6.21065 18.1382 2.41086 13.4391 2.02002L13.1169 2.00003ZM12.6144 4.00003L13.0749 3.99911L13.0618 3.99851C16.8687 4.20861 19.9084 7.24834 20.1185 11.0552L20.117 11.5001C20.12 12.6651 19.8484 13.8117 19.3243 14.8493C18.0527 17.3936 15.4568 18.999 12.6165 19.0001C11.452 19.0031 10.3053 18.7316 9.26778 18.2075C9.0013 18.0729 8.68862 18.0644 8.41522 18.1843L6.40171 19.0676C5.89594 19.2894 5.30609 19.0593 5.08423 18.5535C4.97478 18.304 4.97188 18.0206 5.0762 17.7689L5.94073 15.683C6.05229 15.4138 6.0409 15.1094 5.90952 14.8493C5.38547 13.8117 5.11389 12.6651 5.11692 11.5027C5.11802 8.66029 6.7234 6.06436 9.26398 4.79462C10.3053 4.26867 11.4519 3.99707 12.6144 4.00003Z" fill="currentColor" />
  </symbol>
  <symbol id="logout" viewBox="0 0 24 24">
    <path fill-rule="evenodd" clip-rule="evenodd" d="M21 2C21.5128 2 21.9355 2.38604 21.9933 2.88338L22 3V21C22 21.5128 21.614 21.9355 21.1166 21.9933L21 22H15C14.4477 22 14 21.5523 14 21C14 20.4872 14.386 20.0645 14.8834 20.0067L15 20H20V4H15C14.4872 4 14.0645 3.61396 14.0067 3.11662L14 3C14 2.48716 14.386 2.06449 14.8834 2.00673L15 2H21ZM10.6129 6.2097L10.7071 6.29289L15.7071 11.2929C16.0676 11.6534 16.0953 12.2206 15.7903 12.6129L15.7071 12.7071L10.7071 17.7071C10.3166 18.0976 9.68342 18.0976 9.29289 17.7071C8.93241 17.3466 8.90468 16.7794 9.2097 16.3871L9.29289 16.2929L12.585 13H3C2.44772 13 2 12.5523 2 12C2 11.4872 2.38604 11.0645 2.88338 11.0067L3 11H12.585L9.29289 7.70711C8.93241 7.34662 8.90468 6.77939 9.2097 6.3871L9.29289 6.29289C9.62334 5.96245 10.1275 5.91161 10.5114 6.14038L10.6129 6.2097Z" fill="currentColor" />
  <symbol>
  <symbol id="search" viewBox="0 0 24 24">
    <path d="M11.5 3C16.1944 3 20 6.80558 20 11.5C20 13.489 19.3144 15.3166 18.1699 16.7646L18.5664 17.1514L21.707 20.293C22.0976 20.6835 22.0976 21.3165 21.707 21.707C21.3465 22.0675 20.779 22.0951 20.3867 21.79L20.293 21.707L17.1602 18.5742L16.7549 18.1777C15.3084 19.3176 13.4845 20 11.5 20C6.80558 20 3 16.1944 3 11.5C3 6.80558 6.80558 3 11.5 3ZM11.5 5C7.91015 5 5 7.91015 5 11.5C5 15.0899 7.91015 18 11.5 18C15.0899 18 18 15.0899 18 11.5C18 7.91015 15.0899 5 11.5 5Z" fill="currentColor" />
  </symbol>
  <symbol id="chevron-down" viewBox="0 0 24 24">
    <path d="M16.7071 9.29289C17.0676 9.65338 17.0953 10.2206 16.7903 10.6129L16.7071 10.7071L12.7071 14.7071C12.3466 15.0676 11.7794 15.0953 11.3871 14.7903L11.2929 14.7071L7.29289 10.7071C6.90237 10.3166 6.90237 9.68342 7.29289 9.29289C7.65338 8.93241 8.22061 8.90468 8.6129 9.2097L8.70711 9.29289L12 12.585L15.2929 9.29289C15.6534 8.93241 16.2206 8.90468 16.6129 9.2097L16.7071 9.29289Z" fill="currentColor" />
  </symbol>
  <symbol id="eye" viewBox="0 0 24 24">
    <path d="M12.0001 3C15.3799 3 18.3388 4.63284 20.8546 7.31641C21.7188 8.23819 22.4695 9.22219 23.1056 10.207C23.4044 10.6697 23.6305 11.0567 23.7823 11.3379L23.8946 11.5527C24.0354 11.8343 24.0354 12.1657 23.8946 12.4473C23.7853 12.6659 23.601 12.9981 23.3439 13.415L23.1056 13.793C22.4695 14.7778 21.7188 15.7618 20.8546 16.6836C18.3388 19.3672 15.3799 21 12.0001 21C8.6203 21 5.66146 19.3672 3.14561 16.6836C2.28146 15.7618 1.53071 14.7778 0.894635 13.793C0.595806 13.3303 0.36971 12.9433 0.217877 12.6621L0.105573 12.4473C-0.0351909 12.1657 -0.0351909 11.8343 0.105573 11.5527C0.214904 11.3341 0.399174 11.0019 0.656354 10.585L0.894635 10.207C1.53071 9.22219 2.28146 8.23819 3.14561 7.31641C5.66146 4.63284 8.6203 3 12.0001 3ZM12.0001 5C9.25497 5 6.77622 6.36726 4.6046 8.68359C3.82831 9.51163 3.1491 10.403 2.57432 11.293C2.47416 11.4481 2.38119 11.5977 2.29503 11.7402L2.14073 12L2.29503 12.2598L2.42979 12.4795L2.57432 12.707C3.1491 13.597 3.82831 14.4884 4.6046 15.3164C6.77622 17.6327 9.25497 19 12.0001 19C14.7452 19 17.224 17.6327 19.3956 15.3164C20.1719 14.4884 20.8511 13.597 21.4259 12.707C21.5261 12.5519 21.619 12.4023 21.7052 12.2598L21.8585 12L21.7052 11.7402L21.5704 11.5205L21.4259 11.293C20.8511 10.403 20.1719 9.51163 19.3956 8.68359C17.224 6.36726 14.7452 5 12.0001 5ZM12.0001 8C14.2092 8 16.0001 9.79086 16.0001 12C16.0001 14.2091 14.2092 16 12.0001 16C9.79097 16 8.0001 14.2091 8.0001 12C8.0001 9.79086 9.79097 8 12.0001 8ZM12.0001 10C10.8955 10 10.0001 10.8954 10.0001 12C10.0001 13.1046 10.8955 14 12.0001 14C13.1047 14 14.0001 13.1046 14.0001 12C14.0001 10.8954 13.1047 10 12.0001 10Z" fill="currentColor" />
  </symbol>
  <symbol id="arrow-right" viewBox="0 0 24 24">
    <path fill-rule="evenodd" clip-rule="evenodd" d="M19.7903 11.3871L19.7071 11.2929L14.7071 6.29289C14.3166 5.90237 13.6834 5.90237 13.2929 6.29289C12.9324 6.65338 12.9047 7.22061 13.2097 7.6129L13.2929 7.70711L16.585 11H5C4.44772 11 4 11.4477 4 12C4 12.5128 4.38604 12.9355 4.88338 12.9933L5 13H16.585L13.2929 16.2929C12.9324 16.6534 12.9047 17.2206 13.2097 17.6129L13.2929 17.7071C13.6534 18.0676 14.2206 18.0953 14.6129 17.7903L14.7071 17.7071L19.7071 12.7071C20.0676 12.3466 20.0953 11.7794 19.7903 11.3871Z" fill="currentColor" />
  </symbol>
  <symbol id="chevron-right" viewBox="0 0 24 24">
    <path fill-rule="evenodd" clip-rule="evenodd" d="M9.29289 7.29289C9.65338 6.93241 10.2206 6.90468 10.6129 7.2097L10.7071 7.29289L14.7071 11.2929C15.0676 11.6534 15.0953 12.2206 14.7903 12.6129L14.7071 12.7071L10.7071 16.7071C10.3166 17.0976 9.68342 17.0976 9.29289 16.7071C8.93241 16.3466 8.90468 15.7794 9.2097 15.3871L9.29289 15.2929L12.585 12L9.29289 8.70711C8.93241 8.34662 8.90468 7.77939 9.2097 7.3871L9.29289 7.29289Z" fill="currentColor" />
  </symbol>
</svg>
